<?xml version="1.0" encoding="utf-8"?>
<!-- Generator: Adobe Illustrator 27.0.1, SVG Export Plug-In . SVG Version: 6.00 Build 0)  -->
<svg version="1.1" id="Layer_1" xmlns="http://www.w3.org/2000/svg" xmlns:xlink="http://www.w3.org/1999/xlink" x="0px" y="0px"
	 viewBox="0 0 117.4 49.8" style="enable-background:new 0 0 117.4 49.8;" xml:space="preserve">
<style type="text/css">
	.st0{fill:#014386;}
	.st1{fill:#D1D3D4;}
	.st2{fill:#A7A9AC;}
	
		.st3{clip-path:url(#SVGID_00000024713436687748391360000007088300642982472363_);fill:url(#SVGID_00000028310770554872837450000015778005730552169348_);}
	
		.st4{clip-path:url(#SVGID_00000008854265237740236630000005424281466521883524_);fill:url(#SVGID_00000182519540554537125680000013731114215661835183_);}
</style>
<g id="Layer_2_00000048486254239133055560000011195398461468902041_">
	<g>
		<path class="st0" d="M42.5,49.1h-0.7l1.9-5.2h0.8l1.9,5.2h-0.8l-0.5-1.6h-2L42.5,49.1z M43.3,47h1.6l-0.8-2.3L43.3,47z"/>
		<polygon class="st0" points="49.2,43.9 52.7,43.9 52.7,44.5 49.9,44.5 49.9,46.2 52.4,46.2 52.4,46.8 49.9,46.8 49.9,49.1 
			49.2,49.1 		"/>
		<path class="st0" d="M57.6,44.4c0.7,0.6,0.9,1.5,0.9,2.2s-0.2,1.6-0.9,2.2c-0.3,0.2-0.9,0.5-1.6,0.5c-0.7,0-1.4-0.3-1.6-0.5
			c-0.7-0.6-0.9-1.5-0.9-2.2s0.2-1.6,0.9-2.2c0.3-0.2,0.9-0.5,1.6-0.5C56.7,43.9,57.4,44.2,57.6,44.4 M54.7,44.9
			c-0.4,0.4-0.6,1-0.6,1.6s0.2,1.3,0.6,1.6c0.3,0.3,0.8,0.5,1.3,0.5s1-0.2,1.3-0.5c0.4-0.4,0.6-1,0.6-1.6s-0.2-1.3-0.6-1.6
			c-0.3-0.3-0.8-0.5-1.3-0.5S55,44.6,54.7,44.9"/>
		<path class="st0" d="M59.7,43.9h2.4c0.8,0,1.6,0.2,1.7,1.3c0,0.7-0.2,0.9-0.7,1.3c0.5,0.3,0.6,0.5,0.6,1.3c0,0.7,0,0.9,0.3,1.1
			v0.2h-0.8c-0.1-0.2-0.1-0.5-0.2-0.7c-0.1-0.6,0.2-1.6-0.9-1.6h-1.7V49h-0.7L59.7,43.9L59.7,43.9z M60.4,44.5v1.8h1.7
			c0.5,0,0.9-0.1,1-0.8c0.1-0.9-0.6-1-1-1H60.4z"/>
		<polygon class="st0" points="66.2,44.5 64.5,44.5 64.5,43.9 68.6,43.9 68.6,44.5 66.9,44.5 66.9,49.1 66.2,49.1 		"/>
		<rect x="69.7" y="43.9" class="st0" width="0.7" height="5.2"/>
		<path class="st0" d="M74.8,45.5c0-0.3-0.1-0.6-0.5-0.8s-0.6-0.2-0.9-0.2c-1.2,0-1.4,1.1-0.8,1.4c0.2,0.1,0.5,0.2,0.8,0.3
			c0.4,0.1,0.9,0.2,1.3,0.3c0.5,0.2,0.9,0.7,0.9,1.2c0.1,1-0.9,1.7-2.1,1.7c-0.7,0-1.2-0.1-1.7-0.7c-0.4-0.4-0.4-0.7-0.4-1.2H72
			c0,0.3,0.1,1,1,1.2c0.2,0,0.4,0,0.7,0s0.6-0.1,0.8-0.3c0.3-0.3,0.6-0.9,0-1.3c-0.3-0.2-0.7-0.3-1.1-0.3c-0.7-0.2-0.4-0.1-1.1-0.3
			c-0.2-0.1-0.6-0.3-0.7-1c-0.1-0.8,0.5-1.7,1.8-1.7c0.4,0,1,0.1,1.3,0.3c0.7,0.4,0.8,1.1,0.7,1.3h-0.6V45.5z"/>
		<path class="st0" d="M82.5,45.5c-0.2-0.7-0.7-1.1-1.4-1.1c-0.4,0-0.8,0.2-1.1,0.5c-0.3,0.4-0.5,1-0.5,1.6s0.2,1.3,0.5,1.6
			s0.7,0.5,1.1,0.5c0.8,0,1.3-0.5,1.5-1.5h0.7c-0.2,1.2-1.1,2.1-2.3,2.1c-0.7,0-1.2-0.3-1.5-0.5c-0.6-0.6-0.9-1.5-0.8-2.2
			c0-0.7,0.2-1.6,0.8-2.2c0.2-0.2,0.8-0.5,1.5-0.5c1.1,0,1.8,0.6,2.2,1.7L82.5,45.5L82.5,45.5z"/>
		<path class="st0" d="M88.3,44.4c0.7,0.6,0.9,1.5,0.9,2.2s-0.2,1.6-0.9,2.2c-0.3,0.2-0.9,0.5-1.6,0.5c-0.7,0-1.4-0.3-1.6-0.5
			c-0.7-0.6-0.9-1.5-0.9-2.2s0.2-1.6,0.9-2.2c0.3-0.2,0.9-0.5,1.6-0.5C87.4,43.9,88,44.2,88.3,44.4 M85.4,44.9
			c-0.4,0.4-0.6,1-0.6,1.6s0.2,1.3,0.6,1.6c0.3,0.3,0.8,0.5,1.3,0.5s1-0.2,1.3-0.5c0.4-0.4,0.6-1,0.6-1.6s-0.2-1.3-0.6-1.6
			c-0.3-0.3-0.8-0.5-1.3-0.5S85.7,44.6,85.4,44.9"/>
		<polygon class="st0" points="92.4,49.1 90.9,44.9 90.9,49.1 90.2,49.1 90.2,43.9 91.2,43.9 92.7,48.4 94.2,43.9 95.2,43.9 
			95.2,49.1 94.5,49.1 94.5,44.9 93.1,49.1 		"/>
		<path class="st0" d="M96.6,43.9h2.2c0.4-0.1,1.5,0.1,1.6,1.3c0.2,1.3-0.8,1.7-1.4,1.7h-1.8v2.2h-0.7L96.6,43.9L96.6,43.9z
			 M97.3,46.3H99c0.1,0,0.8-0.2,0.7-1c-0.1-0.7-0.6-0.9-0.9-0.9h-1.5V46.3z"/>
		<path class="st0" d="M101.3,49.1h-0.7l1.9-5.2h0.8l1.9,5.2h-0.8l-0.5-1.6h-2L101.3,49.1z M102,47h1.6l-0.8-2.3L102,47z"/>
		<polygon class="st0" points="109.4,49.1 106.7,45 106.7,49.1 106,49.1 106,43.9 106.8,43.9 109.5,48.1 109.5,43.9 110.1,43.9 
			110.1,49.1 		"/>
		<polygon class="st0" points="111.8,43.9 113.4,46.5 114.9,43.9 115.7,43.9 113.7,47.1 113.7,49.1 113,49.1 113,47.1 111,43.9 		
			"/>
		<path class="st0" d="M114.5,32.1c0.9,0,1.5,0.7,1.5,1.6c0,0.9-0.7,1.6-1.5,1.6c-0.9,0-1.5-0.7-1.5-1.6
			C112.9,32.8,113.6,32.1,114.5,32.1L114.5,32.1z M114.5,32.4c-0.7,0-1.2,0.6-1.2,1.3s0.6,1.3,1.3,1.3s1.2-0.6,1.2-1.3
			C115.7,33,115.2,32.4,114.5,32.4L114.5,32.4z M114.2,34.6h-0.3v-1.7c0.1,0,0.3,0,0.5,0c0.3,0,0.4,0.1,0.5,0.1
			c0.1,0.1,0.2,0.2,0.2,0.4s-0.2,0.4-0.3,0.4l0,0c0.2,0,0.3,0.2,0.3,0.4c0,0.3,0.1,0.4,0.1,0.4h-0.3c0-0.1-0.1-0.2-0.1-0.4
			s-0.2-0.3-0.4-0.3h-0.2V34.6z M114.2,33.6h0.2c0.2,0,0.4-0.1,0.4-0.3s-0.1-0.3-0.4-0.3c-0.1,0-0.2,0-0.2,0V33.6z"/>
		<path class="st1" d="M36.8,12.7l-0.1-0.5C34,5.1,27.4,0.3,19.4,0.3C9,0.3,0.6,8.7,0.6,19.1C0.6,25.7,4,31.4,9,34.8
			C7.8,29.7,10.3,15.7,36.8,12.7"/>
		<rect x="51" y="6.4" class="st2" width="13" height="0.7"/>
		<path class="st2" d="M85,4.6c-0.5,0.6-1,1.2-1.4,1.8H70v4.9c0.2,0,0.4,0,0.6,0V7.1h13.6c0.4-0.6,0.9-1.2,1.4-1.8
			c1.8-1.9,3.9-3.3,6.3-4.2h-2.3C87.8,2,86.3,3.1,85,4.6"/>
		<path class="st2" d="M69.9,34.9h-5.4v0.6h6V13.2c-0.2,0-0.4,0-0.6,0V34.9z"/>
		<path class="st2" d="M100.8,7.1H111v-6h-0.4v5.2h-10.3c-3.5,0-6.2,1.2-8.4,3.4c-0.8,0.9-1.5,1.9-2,2.9c0.3,0,0.6,0.1,0.8,0.1
			c0.4-0.8,1-1.6,1.6-2.3C94.6,8.3,97.3,7.1,100.8,7.1"/>
		<path class="st2" d="M100.3,34.9c-5.4,0-9.7-1.8-13-5.5c-0.1-0.1-0.2-0.3-0.3-0.4c0.3,0.4,0.6,0.7,0.9,1c3.3,3.7,7.6,5.5,12.9,5.5
			H111v-6h-0.4v5.3L100.3,34.9L100.3,34.9z"/>
		<path class="st2" d="M88.9,17.2c-0.1,3,0.8,5.6,2.5,7.7c-1.4-2-2-4.3-1.9-7c0.1-1.7,0.4-3.2,1.1-4.6c-0.3,0-0.6,0-0.8,0
			C89.2,14.5,88.9,15.8,88.9,17.2"/>
		<path class="st2" d="M48.1,34.9h-5.3v0.6h6V14.3c-0.2,0-0.4,0-0.7,0.1V34.9z"/>
		<path class="st2" d="M48.7,11.2V1.1H48v10.1C48.3,11.3,48.5,11.3,48.7,11.2"/>
		<path class="st0" d="M64.5,13.4c-0.2,0-0.4,0-0.6,0v21.5h0.6h5.4V13.3C68,13.3,66.3,13.3,64.5,13.4"/>
		<path class="st0" d="M50.3,0.4v6H51h13v0.7v4c0.2,0,0.4,0,0.6,0c1.8,0,3.6,0.1,5.4,0.2V6.4h13.6C84,5.8,84.5,5.2,85,4.6
			c1.3-1.4,2.8-2.6,4.5-3.4c0.6-0.3,1.2-0.5,1.8-0.8L50.3,0.4L50.3,0.4z"/>
		<path class="st0" d="M91.6,25.2c-0.1-0.1-0.1-0.2-0.2-0.3c-1.7-2.1-2.6-4.7-2.5-7.7c0-1.4,0.3-2.7,0.8-3.9c-1.9,0-3.8-0.1-5.6-0.1
			c-0.2,0-0.5,0-0.7,0c-0.3,1.3-0.4,2.6-0.4,4c0,4.5,1.3,8.4,4.1,11.7c0.1,0.1,0.2,0.3,0.3,0.4c3.3,3.7,7.6,5.5,13,5.5h10.3v-5.3
			v-0.7h-10.3C96.6,28.9,93.7,27.7,91.6,25.2"/>
		<path class="st0" d="M100.3,0.4c-5.6,0-9.9,1.8-13.1,5.3c-1.7,1.9-2.9,4-3.6,6.5c0.3,0,0.5,0,0.7,0.1c2.1,0.2,4,0.3,5.6,0.5
			c0.5-1.1,1.1-2,2-2.9c2.2-2.3,4.9-3.4,8.4-3.4h10.3V1.3V0.5L100.3,0.4L100.3,0.4z"/>
		<path class="st0" d="M42.8,15c-0.2,0-0.5,0.1-0.7,0.1v19.7h0.7h5.3V14.3C46.2,14.6,44.4,14.8,42.8,15"/>
		<path class="st0" d="M42.1,0.4v11.3c0.2,0,0.5,0,0.7-0.1c1.8-0.1,3.5-0.3,5.3-0.3V1.2V0.4H42.1z"/>
	</g>
	<g>
		<g>
			<defs>
				<path id="SVGID_1_" d="M29.4,18.4c-11.1,5.5-7.2,13.6-0.7,16.9c5.6-3.2,9.4-9.3,9.4-16.2c0-1.1-0.1-2.2-0.3-3.2
					C34,16.6,31.3,17.5,29.4,18.4"/>
			</defs>
			<clipPath id="SVGID_00000024713697106361789960000012774821951340443053_">
				<use xlink:href="#SVGID_1_"  style="overflow:visible;"/>
			</clipPath>
			
				<radialGradient id="SVGID_00000105386508508386218910000008341424132840582801_" cx="-209.4891" cy="-38.7443" r="1" gradientTransform="matrix(31.6113 0 0 31.6113 6630.0591 1231.0116)" gradientUnits="userSpaceOnUse">
				<stop  offset="0" style="stop-color:#1FC4F4"/>
				<stop  offset="0.1107" style="stop-color:#20BCED"/>
				<stop  offset="0.2688" style="stop-color:#16ACE0"/>
				<stop  offset="0.4555" style="stop-color:#0195CE"/>
				<stop  offset="0.664" style="stop-color:#0078B6"/>
				<stop  offset="0.8879" style="stop-color:#00599D"/>
				<stop  offset="1" style="stop-color:#004990"/>
			</radialGradient>
			
				<rect x="18.3" y="15.9" style="clip-path:url(#SVGID_00000024713697106361789960000012774821951340443053_);fill:url(#SVGID_00000105386508508386218910000008341424132840582801_);" width="19.7" height="19.4"/>
		</g>
	</g>
	<g>
		<g>
			<defs>
				<path id="SVGID_00000011734756133429169200000004686056197980091069_" d="M0.5,19.1c0,5.4,2.3,10.3,6,13.7
					c0.2-3.4,1.6-6.9,4.1-10.2c4.5-5.8,14.5-8.9,26.1-10.4C34,5.2,27.2,0.3,19.2,0.3C8.9,0.4,0.5,8.7,0.5,19.1"/>
			</defs>
			<clipPath id="SVGID_00000021111549707985935970000008729783412741547924_">
				<use xlink:href="#SVGID_00000011734756133429169200000004686056197980091069_"  style="overflow:visible;"/>
			</clipPath>
			
				<radialGradient id="SVGID_00000106855077457980504530000011325778591558615697_" cx="-209.4792" cy="-38.7494" r="1" gradientTransform="matrix(31.5542 0 0 31.5542 6617.8813 1228.9551)" gradientUnits="userSpaceOnUse">
				<stop  offset="0" style="stop-color:#1FC4F4"/>
				<stop  offset="0.1107" style="stop-color:#20BCED"/>
				<stop  offset="0.2688" style="stop-color:#16ACE0"/>
				<stop  offset="0.4555" style="stop-color:#0195CE"/>
				<stop  offset="0.664" style="stop-color:#0078B6"/>
				<stop  offset="0.8879" style="stop-color:#00599D"/>
				<stop  offset="1" style="stop-color:#004990"/>
			</radialGradient>
			
				<rect x="0.5" y="0.4" style="clip-path:url(#SVGID_00000021111549707985935970000008729783412741547924_);fill:url(#SVGID_00000106855077457980504530000011325778591558615697_);" width="36.2" height="32.5"/>
		</g>
	</g>
</g>
</svg>
